<svg xmlns="http://www.w3.org/2000/svg" width="20" height="20" viewBox="0 0 20 20">
    <g fill="#4997D5" fill-rule="nonzero">
        <path d="M0 10.034C0 15.53 4.47 20 9.965 20c5.496 0 9.966-4.47 9.966-9.966 0-5.495-4.47-9.965-9.966-9.965C4.47.069 0 4.539 0 10.034zm18.503 0c0 4.708-3.83 8.537-8.538 8.537-4.707 0-8.536-3.83-8.536-8.537 0-4.707 3.83-8.537 8.536-8.537 4.708 0 8.538 3.83 8.538 8.537z"/>
        <path d="M9.799 4.91v4.683h-5.12a.714.714 0 1 0 0 1.429h5.834c.394 0 .714-.32.714-.714V4.91a.714.714 0 1 0-1.428 0z"/>
    </g>
</svg>
