<svg xmlns="http://www.w3.org/2000/svg" width="22" height="18" viewBox="0 0 22 18">
    <path fill="#4997D5" fill-rule="nonzero" d="M21.268 1.013c-.309 0-.598.003-.888.01V0h-.323C13.782 0 11.678 1.56 11 2.403 10.32 1.56 8.217 0 1.942 0H1.62v1.023c-.29-.008-.579-.01-.887-.01H0v14.799h.732c7.742 0 9.322 1.845 9.547 2.188h1.453c.245-.359 1.856-2.188 9.536-2.188H22v-14.8h-.732zM10.516 15.144c-1.082-.829-3.35-1.79-8.089-1.854V.846c6.638.089 7.92 1.98 8.089 2.287v12.011zm9.057-1.854c-4.74.064-7.007 1.024-8.089 1.854V3.137c.183-.337 1.502-2.202 8.089-2.29V13.29z"/>
</svg>
