<svg xmlns="http://www.w3.org/2000/svg" width="34" height="34" viewBox="0 0 34 34">
    <g fill="none" fill-rule="evenodd">
        <circle cx="17" cy="17" r="17" fill="#EDF5FB"/>
        <path fill="#4997D5" d="M24.906 23.653a.375.375 0 0 1 0 .531l-.706.707a.375.375 0 0 1-.531 0l-3.794-3.794a.384.384 0 0 1-.11-.266v-.412A6.499 6.499 0 0 1 9.016 15.5c0-3.59 2.91-6.5 6.5-6.5a6.499 6.499 0 0 1 4.92 10.75h.412c.1 0 .194.038.265.11l3.794 3.793zm-9.39-3.153c2.762 0 5-2.237 5-5 0-2.762-2.238-5-5-5-2.763 0-5 2.238-5 5 0 2.763 2.237 5 5 5z"/>
    </g>
</svg>
