<svg xmlns="http://www.w3.org/2000/svg" width="19" height="20" viewBox="0 0 19 20">
    <g fill="#4997D5" fill-rule="nonzero">
        <path d="M14.221 4.597c.731 0 1.324-.598 1.324-1.344V1.847C15.545 1.1 14.953.5 14.22.5c-.732 0-1.323.6-1.323 1.347v1.407c.001.745.592 1.343 1.323 1.343z"/>
        <path d="M18.923 2.83h-2.664v.684c0 1.13-.902 2.05-2.015 2.05-1.114 0-2.014-.92-2.014-2.05v-.685H6.854v.685c0 1.13-.903 2.05-2.015 2.05s-2.015-.92-2.015-2.05v-.685L.136 2.795v17.119h17.465l1.342-.004-.02-17.08zm-1.324 15.72H1.481V7.616H17.6V18.55h-.002z"/>
        <path d="M4.818 4.597c.731 0 1.324-.598 1.324-1.344V1.847C6.142 1.1 5.55.5 4.818.5c-.731 0-1.322.6-1.322 1.347v1.407c0 .745.59 1.343 1.322 1.343zM6.858 9.082h2.117v1.901H6.858zM10.281 9.082H12.4v1.901h-2.119zM13.455 9.082h2.117v1.901h-2.117zM6.858 12.239h2.117v1.9H6.858zM10.281 12.239H12.4v1.9h-2.119zM13.455 12.239h2.117v1.9h-2.117zM6.858 15.459h2.117v1.9H6.858zM3.496 12.239h2.116v1.9H3.496zM3.496 15.459h2.116v1.9H3.496zM10.281 15.459H12.4v1.9h-2.119zM13.455 15.459h2.117v1.9h-2.117z"/>
    </g>
</svg>
