<svg xmlns="http://www.w3.org/2000/svg" width="164" height="34" viewBox="0 0 164 34">
    <g fill="#4997D5" fill-rule="nonzero">
        <path d="M.5 12.325C8.21 8.5 15.638 4.675 23.068.85c.28-.142.84-.283 1.12 0 6.309 3.117 12.616 6.375 19.204 9.633-1.121.567-1.962 1.134-3.083 1.559-.421.141-1.122 0-1.683-.284-4.625-2.408-9.25-4.675-14.017-7.083-.42-.283-1.261-.425-1.682-.283C17.881 6.8 13.115 9.35 8.07 11.9c-.14.142-.28.283-.56.425 1.401.708 2.663 1.417 4.065 1.983.28.142.98 0 1.401-.283 3.084-1.558 6.168-3.117 9.111-4.533 1.122-.567 1.963-.709 3.084 0l1.962.991c-3.784 1.984-7.569 3.825-11.634 5.95 2.664 1.417 5.187 2.692 7.71 3.825.28.142.98 0 1.261-.283l9.252-4.675c.28-.283.84-.283 1.401-.708 0 .425.14.708.14.991V26.35c0 .85-.28 1.275-.98 1.7-3.225 1.7-6.449 3.258-9.813 4.958-.42.284-1.121.284-1.682 0-3.364-1.7-6.588-3.258-9.812-5.1-.42-.283-.84-.991-.981-1.416a62.12 62.12 0 0 1 0-7.225c0-.85-.28-1.275-.981-1.7-3.084-1.559-6.168-3.117-9.111-4.675-.42 0-.841-.284-1.402-.567zm14.998 7.65v5.242c0 .283.28.708.701.991 2.243 1.134 4.486 2.409 6.588 3.4.28.284.981.284 1.402 0 2.243-.991 4.485-2.266 6.588-3.4.28-.141.7-.566.7-.85.14-1.7 0-3.4 0-5.383-2.522 1.275-4.765 2.408-7.148 3.542-.56.283-1.402.283-1.962 0-1.963-.992-4.346-2.125-6.869-3.542zM142.073 10.2c1.121 0 2.242-.142 3.083 0 2.664.283 4.206 1.7 4.486 4.392.28 1.7.28 3.541 0 5.241-.28 2.409-1.963 3.967-4.345 3.967-1.963.142-4.065-.283-6.028-.283-.84-.142-.981-.567-.981-1.417V6.8c0-.992.28-1.133 1.121-1.133 3.084 0 2.523-.284 2.523 2.55.28.566.14 1.133.14 1.983zm4.065 6.942s.14 0 0 0c0-.992 0-1.842-.28-2.692-.421-1.417-1.683-1.275-2.944-.992-.28 0-.701.567-.701.85-.14 1.984 0 3.825 0 5.95 0 .284.28.709.42.709 1.542.708 3.224-.142 3.505-1.7v-2.125zM95.396 10.2V6.942c0-.992.42-1.275 1.261-1.275 3.084 0 2.523-.284 2.523 2.408v13.742c0 1.133-.28 1.7-1.401 1.7-1.542.283-3.224.566-4.766.566-3.084-.141-4.906-1.7-5.187-4.816-.14-1.275-.14-2.55 0-3.825.28-3.542 2.664-5.384 6.168-5.242.28-.142.7-.142 1.402 0zm0 6.942v-2.409c0-.425 0-.991-.28-1.275-.561-.708-3.084-.141-3.225.709-.28 1.841-.28 3.966 0 5.95.28 1.275 1.823.991 2.944.85.28-.142.42-.992.56-1.559v-2.266zM106.189 23.658c-1.402 0-1.963-.85-2.383-1.983-.981-3.4-1.962-6.942-3.084-10.342-.14-.283-.14-.566-.14-.991 1.121 0 2.243-.142 3.224 0 .28 0 .7.566.841.991.7 2.409 1.262 5.1 1.822 7.65.14.284.28.709.42 1.417.281-.567.281-.992.421-1.133l1.682-7.225c.28-1.275.841-1.842 2.103-1.7.7.141 1.402 0 2.243 0-.14.566-.28.991-.28 1.558-1.122 4.392-2.384 8.642-3.645 12.892-.981 3.541-4.486 5.241-7.85 3.541-.42-.283-.42-1.275-.56-1.983 0-.283.7-.567.98-.567.561-.141 1.122.142 1.683.142 1.682-.283 2.383-.708 2.523-2.267zM162.538 20.825c.42 2.408.28 2.55-1.963 2.975-1.401.283-3.084.283-4.485.142-1.122-.284-2.383-.85-3.224-1.7-2.243-2.267-2.103-8.5.28-10.625 1.822-1.7 4.205-1.984 6.448-1.134 2.383.85 3.224 2.692 3.504 5.1v.425c.14 2.409.14 2.409-2.242 2.409h-5.747c0 1.7.7 2.55 2.242 2.55 1.823-.142 3.505-.142 5.187-.142zm-7.29-5.1h4.066c0-1.7-.701-2.692-1.963-2.692-1.261 0-2.102.992-2.102 2.692zM132.26 23.233c-1.541.284-2.803.567-4.204.567-1.823 0-3.084-.992-3.365-2.692-.28-1.7-.28-3.541-.28-5.241v-4.534c0-.85.28-.991.981-.991 3.084.141 2.664-.284 2.804 2.55v6.091c0 1.134.42 1.842 1.682 1.842 1.401 0 2.243-.708 2.383-1.983V10.2h3.083c.28 0 .561.567.561.992v11.616c0 .284-.56.992-.981.992-.981 0-2.243.425-2.663-.567zM74.23 10.2h3.644v5.808c0 1.134.14 2.267.14 3.4.14 1.134.842 1.559 1.823 1.417.98-.142 2.102-.142 2.102-1.7v-7.508c0-.992.28-1.417 1.402-1.417 2.663.142 2.383-.283 2.383 2.408V22.1c0 .567-.28 1.7-.56 1.7-.982 0-2.103.708-2.944-.425l-.14-.142c-1.542.284-2.664.567-3.785.709-2.383.141-3.925-.992-3.925-3.684-.14-3.258-.14-6.516-.14-10.058zM53.204 20.683c1.262.142 2.383.284 3.645.284.7 0 1.401-.425 2.102-.567-.42-.425-.84-1.133-1.401-1.558-.841-.567-1.682-.992-2.664-1.559-1.682-.991-2.242-2.408-1.822-4.533.28-1.417 1.262-2.408 3.224-2.408 1.682-.142 3.224.141 4.906.283 1.542.142.981 1.417.981 2.267 0 .991-.84.708-1.542.566-.98-.141-1.962-.141-2.943-.141-.28 0-.841.283-1.122.425.28.283.42.85.701.991.981.567 1.963 1.134 3.084 1.7 1.822.992 2.523 2.692 2.103 4.534-.28 1.7-1.823 2.833-3.785 2.975-1.262.141-2.383.141-3.504-.142-2.103-.283-2.243-.425-1.963-3.117zM66.1 10.2c.42-2.55.981-2.975 3.925-2.692V10.2c.84 0 1.542.142 2.383.142 0 .425 0 .991.14 1.558.14.85-.28 1.417-1.122 1.275-.98-.142-1.261.425-1.261 1.417.14 1.7.14 3.258 0 4.958-.14 1.275.28 1.983 1.682 1.7.28 0 .42 0 .56.142.421 2.408.281 2.691-1.962 2.691-3.083.142-4.065-.991-4.065-3.966v-5.809c0-.991-.28-1.416-1.121-1.416-.7 0-1.262-.284-1.262-1.275 0-.992.28-1.559 1.262-1.417h.841zM120.206 7.508c0 .992.14 1.7.14 2.692.28 0 .56.142.841.142 1.402 0 2.103.991 1.542 2.408-.14.283-.7.425-.981.425-1.262-.142-1.542.425-1.402 1.558.14 1.559.14 3.117 0 4.534-.14 1.416.28 2.266 1.822 1.983.14 0 .28 0 .28.142 0 0 .14 0 .14.141.281 2.409.281 2.55-2.102 2.692-3.083 0-3.924-.992-4.065-3.967v-6.941c-1.121-.284-2.663 0-2.383-1.984.28-1.7 1.542-.425 2.243-.991.56-2.834.981-2.975 3.925-2.834z"/>
    </g>
</svg>
