<svg xmlns="http://www.w3.org/2000/svg" width="34" height="34" viewBox="0 0 34 34">
    <g fill="none" fill-rule="evenodd">
        <circle cx="17" cy="17" r="17" fill="#EDF5FB"/>
        <path fill="#4997D5" d="M17.016 25a2 2 0 0 1-2-2h3.999a2 2 0 0 1-2 2zm6.73-4.678c.188.2.271.442.27.678a1 1 0 0 1-1.004 1H11.02a1 1 0 0 1-1.003-1 .976.976 0 0 1 .269-.678c.603-.65 1.733-1.625 1.733-4.822 0-2.428 1.703-4.372 3.998-4.849V10a1 1 0 1 1 1.999 0v.651c2.296.477 3.998 2.42 3.998 4.849 0 3.197 1.13 4.173 1.734 4.822z"/>
    </g>
</svg>
